<?xml version="1.0" encoding="UTF-8"?>
<svg xmlns="http://www.w3.org/2000/svg" xmlns:xlink="http://www.w3.org/1999/xlink" width="50px" height="28px" viewBox="0 0 49 28" version="1.1">
<g id="surface1">
<path style=" stroke:none;fill-rule:evenodd;fill:rgb(100%,100%,100%);fill-opacity:1;" d="M 23.414062 0 C 23.871094 0 24.414062 0.171875 24.628906 0.386719 C 24.835938 0.597656 25.011719 1 25.011719 1.285156 C 25.011719 1.566406 24.101562 3.734375 22.992188 6.101562 C 21.882812 8.464844 19.894531 12.484375 18.574219 15.027344 C 17.253906 17.570312 15.492188 20.75 13.144531 24.542969 L 14.929688 24.34375 C 15.914062 24.230469 18.378906 23.792969 20.417969 23.363281 C 22.453125 22.933594 24.320312 22.648438 24.5625 22.722656 C 24.808594 22.796875 25.097656 23.210938 25.203125 23.640625 C 25.378906 24.375 25.546875 24.140625 27.929688 19.722656 C 29.324219 17.140625 31.179688 13.808594 32.050781 12.328125 C 32.925781 10.84375 34.082031 9.140625 34.617188 8.546875 C 35.308594 7.785156 35.808594 7.460938 36.304688 7.453125 C 36.753906 7.449219 37.097656 7.628906 37.261719 7.960938 C 37.402344 8.242188 37.445312 8.847656 37.355469 9.308594 C 37.265625 9.769531 36.75 11.183594 36.207031 12.457031 C 35.667969 13.726562 35.285156 14.828125 35.359375 14.898438 C 35.433594 14.964844 36.089844 14.882812 36.824219 14.703125 C 37.554688 14.523438 38.757812 13.972656 39.492188 13.480469 C 40.230469 12.988281 41.1875 12.089844 41.621094 11.492188 C 42.054688 10.890625 42.570312 9.996094 42.773438 9.503906 C 42.972656 9.007812 43.140625 8.082031 43.144531 7.445312 C 43.144531 6.667969 42.953125 6 42.554688 5.390625 C 42.230469 4.894531 41.449219 4.207031 40.824219 3.855469 C 39.863281 3.320312 39.34375 3.214844 37.515625 3.214844 C 36.105469 3.210938 34.898438 3.367188 34.070312 3.65625 C 33.367188 3.902344 32.34375 4.476562 31.792969 4.941406 C 31.238281 5.398438 30.179688 6.730469 29.429688 7.898438 C 28.542969 9.285156 27.832031 10.109375 27.371094 10.289062 C 26.984375 10.4375 26.382812 10.484375 26.03125 10.394531 C 25.679688 10.304688 25.1875 10.039062 24.9375 9.800781 C 24.679688 9.554688 24.488281 9.015625 24.492188 8.539062 C 24.496094 8.078125 24.773438 7.152344 25.105469 6.484375 C 25.4375 5.8125 26.386719 4.644531 27.210938 3.886719 C 28.035156 3.128906 29.515625 2.128906 30.496094 1.664062 C 31.480469 1.199219 33.117188 0.632812 34.132812 0.410156 C 35.152344 0.183594 36.730469 -0.00390625 37.644531 -0.00390625 C 38.554688 -0.00390625 39.90625 0.125 40.640625 0.285156 C 41.378906 0.441406 42.601562 0.875 43.355469 1.25 C 44.117188 1.621094 45.203125 2.453125 45.78125 3.09375 C 46.359375 3.738281 46.972656 4.722656 47.144531 5.277344 C 47.316406 5.835938 47.464844 7.042969 47.46875 7.960938 C 47.476562 9.296875 47.328125 9.9375 46.730469 11.171875 C 46.28125 12.097656 45.4375 13.222656 44.613281 13.996094 C 43.859375 14.703125 42.328125 15.757812 41.207031 16.335938 C 40.089844 16.917969 38.621094 17.550781 37.945312 17.75 C 36.820312 18.078125 36.726562 18.164062 36.867188 18.75 C 36.953125 19.105469 37.410156 20.199219 37.886719 21.191406 C 38.367188 22.179688 39.058594 23.277344 39.433594 23.628906 C 39.984375 24.152344 40.359375 24.269531 41.429688 24.253906 C 42.207031 24.246094 43.238281 24.007812 43.960938 23.675781 C 44.625 23.367188 45.71875 22.59375 46.382812 21.953125 C 47.265625 21.105469 47.769531 20.808594 48.234375 20.859375 C 48.78125 20.921875 48.882812 21.078125 48.945312 21.960938 C 49.011719 22.914062 48.90625 23.089844 47.539062 24.414062 C 46.730469 25.199219 45.433594 26.152344 44.660156 26.53125 C 43.886719 26.910156 42.65625 27.335938 41.917969 27.480469 C 41.179688 27.625 40.207031 27.667969 39.75 27.574219 C 39.292969 27.484375 38.632812 27.269531 38.28125 27.09375 C 37.929688 26.917969 37.234375 26.328125 36.738281 25.78125 C 36.242188 25.234375 35.535156 24.265625 35.167969 23.628906 C 34.800781 22.996094 34.21875 21.78125 33.875 20.933594 C 33.535156 20.085938 33.171875 19.160156 33.070312 18.878906 C 32.929688 18.488281 32.625 19.074219 31.796875 21.320312 C 31.195312 22.945312 30.503906 24.679688 30.253906 25.171875 C 30.007812 25.667969 29.382812 26.503906 28.875 27.039062 C 28.121094 27.824219 27.765625 28.003906 26.988281 28.003906 C 26.246094 28 25.910156 27.839844 25.496094 27.289062 C 25.085938 26.746094 25 26.359375 25.113281 25.621094 C 25.261719 24.671875 25.257812 24.664062 24.691406 25.03125 C 24.375 25.238281 23.429688 25.648438 22.585938 25.9375 C 21.742188 26.226562 19.90625 26.691406 18.503906 26.960938 C 17.097656 27.234375 14.34375 27.570312 12.378906 27.703125 C 10.414062 27.839844 7.828125 27.863281 6.636719 27.753906 C 5.441406 27.644531 3.890625 27.367188 3.191406 27.136719 C 2.488281 26.910156 1.53125 26.402344 1.0625 26.011719 C 0.394531 25.457031 0.175781 25.046875 0.0625 24.148438 C -0.0273438 23.421875 0.0546875 22.660156 0.277344 22.109375 C 0.53125 21.492188 0.945312 21.089844 1.660156 20.765625 C 2.21875 20.511719 3.199219 20.300781 3.828125 20.296875 C 4.457031 20.289062 5.496094 20.464844 6.125 20.679688 C 6.753906 20.894531 7.859375 21.5 9.875 22.992188 L 10.464844 21.578125 C 10.785156 20.800781 12.21875 17.738281 13.644531 14.769531 C 15.070312 11.804688 17.132812 7.699219 18.226562 5.652344 C 19.320312 3.601562 20.351562 1.695312 20.511719 1.414062 C 20.675781 1.132812 21.210938 0.703125 21.699219 0.453125 C 22.183594 0.207031 22.957031 0 23.414062 0 Z M 4.613281 24.066406 C 4.949219 24.238281 5.746094 24.441406 6.378906 24.527344 L 7.527344 24.679688 C 5.355469 23.488281 4.507812 23.132812 4.242188 23.128906 C 3.972656 23.121094 3.816406 23.253906 3.878906 23.4375 C 3.941406 23.613281 4.269531 23.898438 4.613281 24.066406 Z M 4.613281 24.066406 "/>
</g>
</svg>
